<svg width="80" height="80" viewBox="0 0 80 80" fill="none" xmlns="http://www.w3.org/2000/svg">
<path fill-rule="evenodd" clip-rule="evenodd" d="M12 0C5.37258 0 0 5.37258 0 12V68C0 74.6274 5.37258 80 12 80H68C74.6274 80 80 74.6274 80 68V12C80 5.37258 74.6274 0 68 0H12ZM48.2792 18.7253L47.6071 16.5928C47.5251 16.2958 47.5604 15.9784 47.7056 15.7069C47.8509 15.4354 48.0948 15.2305 48.3867 15.1351L51.7829 14.0554C51.9318 14.0081 52.0884 13.9908 52.244 14.0046C52.3995 14.0184 52.5508 14.0629 52.689 14.1357C52.8273 14.2085 52.9499 14.308 53.0497 14.4286C53.1495 14.5492 53.2245 14.6884 53.2704 14.8382L53.9425 16.9707H54.8924C55.1934 16.9985 55.4926 17.0436 55.7885 17.1057L56.8817 15.1081C56.9526 14.9691 57.0504 14.8456 57.1692 14.7448C57.2881 14.644 57.4258 14.568 57.5742 14.5211C57.7227 14.4742 57.8788 14.4574 58.0338 14.4717C58.1887 14.486 58.3393 14.531 58.4767 14.6043L61.5683 16.2689C61.8469 16.4163 62.056 16.6685 62.15 16.9702C62.2441 17.272 62.2153 17.5989 62.0701 17.8795L61.0395 19.859C61.4915 20.3045 61.8996 20.7926 62.2582 21.3167L64.382 20.6418C64.6839 20.5485 65.0101 20.5783 65.2902 20.7248C65.5703 20.8713 65.7817 21.1228 65.8785 21.4246L66.9448 24.8348C66.992 24.9843 67.0091 25.1416 66.9954 25.2978C66.9817 25.4539 66.9373 25.6058 66.8648 25.7447C66.7923 25.8835 66.6932 26.0066 66.5731 26.1068C66.4531 26.207 66.3144 26.2823 66.1652 26.3285L64.0415 27.0033C64.0415 27.0902 64.0443 27.1808 64.0472 27.2745V27.2747C64.0532 27.4722 64.0597 27.6835 64.0415 27.9031C64.0146 28.227 63.9608 28.5419 63.9071 28.8479L65.8874 29.8826C66.1659 30.0302 66.3754 30.2818 66.471 30.583C66.5665 30.8843 66.5404 31.2111 66.3982 31.4932L64.7494 34.6605C64.6041 34.9394 64.3553 35.1497 64.0567 35.2457C63.7581 35.3417 63.4339 35.3157 63.1543 35.1734L61.165 34.1296C60.7243 34.5857 60.2412 34.9984 59.7223 35.3623L60.3944 37.4948C60.4415 37.6443 60.4587 37.8016 60.445 37.9578C60.4312 38.1139 60.3868 38.2658 60.3144 38.4047C60.2419 38.5435 60.1428 38.6666 60.0227 38.7668C59.9026 38.867 59.764 38.9423 59.6148 38.9884L56.2186 40.0592C56.0703 40.1067 55.9142 40.1244 55.7591 40.1112C55.604 40.098 55.4531 40.0542 55.3149 39.9823C55.1767 39.9104 55.054 39.8118 54.9538 39.6922C54.8537 39.5727 54.7779 39.4344 54.7311 39.2854L54.068 37.1529C53.9638 37.1529 53.8546 37.1559 53.7451 37.1588C53.525 37.1649 53.3036 37.1709 53.1181 37.1529C52.8403 37.1259 52.5267 37.0719 52.222 37.0179L51.1915 39.0064C51.0464 39.2855 50.7969 39.4954 50.4978 39.5899C50.1987 39.6844 49.8746 39.6557 49.5965 39.5103L46.4332 37.8637C46.2944 37.7916 46.1713 37.6926 46.0708 37.5724C45.9703 37.4522 45.8946 37.3132 45.8479 37.1635C45.8013 37.0137 45.7846 36.8561 45.799 36.6999C45.8133 36.5436 45.8583 36.3918 45.9314 36.2531L46.962 34.2736C46.5075 33.8247 46.0965 33.3336 45.7343 32.8069L43.6195 33.4818C43.3188 33.5755 42.9935 33.547 42.7136 33.4022C42.4337 33.2575 42.2216 33.0082 42.123 32.7079L41.0567 29.2978C40.9636 28.9971 40.9923 28.6716 41.1365 28.392C41.2808 28.1124 41.529 27.9012 41.8273 27.8041L43.96 27.1293C43.9378 26.8117 43.9378 26.493 43.96 26.1755C43.9869 25.8606 44.0317 25.5457 44.0855 25.2307L42.1051 24.196C41.9666 24.1248 41.8436 24.0266 41.7432 23.9072C41.6429 23.7879 41.5672 23.6496 41.5205 23.5006C41.4738 23.3516 41.457 23.1947 41.4713 23.0391C41.4855 22.8835 41.5304 22.7324 41.6033 22.5944L43.2521 19.4271C43.3223 19.2873 43.4194 19.1629 43.5379 19.0612C43.6565 18.9595 43.794 18.8825 43.9425 18.8348C44.091 18.787 44.2475 18.7695 44.4028 18.7831C44.5581 18.7968 44.7092 18.8413 44.8471 18.9142L46.8275 19.949C47.2716 19.4957 47.7577 19.0859 48.2792 18.7253ZM57.6893 30.0343C58.2746 29.3002 58.6297 28.4081 58.7097 27.4712C58.8167 26.2189 58.425 24.975 57.6205 24.012C56.816 23.0491 55.6642 22.4455 54.4174 22.3334C53.4846 22.2496 52.5481 22.4456 51.7263 22.8967C50.9045 23.3477 50.2345 24.0335 49.8012 24.8672C49.3679 25.7009 49.1907 26.6449 49.2921 27.5798C49.3935 28.5146 49.7689 29.3982 50.3708 30.1187C50.9727 30.8392 51.774 31.364 52.6732 31.6269C53.5724 31.8897 54.5291 31.8787 55.422 31.5952C56.315 31.3117 57.104 30.7685 57.6893 30.0343ZM60.9679 42.2816C60.7031 41.8497 60.4034 41.4405 60.0718 41.0579C61.1575 40.5738 62.183 39.9638 63.1275 39.2404C63.1633 39.7623 63.1812 40.2841 63.1812 40.806C63.1812 45.7889 61.7097 50.6599 58.9527 54.803C56.1957 58.9462 52.2771 62.1753 47.6924 64.0822C43.1077 65.9891 38.0628 66.488 33.1957 65.5159C28.3286 64.5438 23.8578 62.1443 20.3489 58.6208C16.8399 55.0974 14.4503 50.6082 13.4821 45.7211C12.514 40.8339 13.0108 35.7683 14.9099 31.1647C16.8089 26.5611 20.0249 22.6263 24.151 19.858C28.2771 17.0896 33.1282 15.612 38.0906 15.612C39.8585 15.6143 41.6213 15.8013 43.3507 16.1699C42.7548 16.762 42.2093 17.4031 41.7198 18.0864C41.595 18.0651 41.4726 18.0414 41.3518 18.0179L41.3517 18.0179L41.3517 18.0179C41.0128 17.952 40.6856 17.8885 40.3488 17.8885C40.5011 18.3834 40.6803 18.8782 40.8774 19.3641C40.4629 20.0842 40.1063 20.8365 39.8111 21.6136C39.3835 20.6565 39.033 19.6666 38.7627 18.6533C35.6866 22.3103 33.2944 26.4956 31.7015 31.0073C31.8855 31.2068 32.0312 31.4387 32.1316 31.6912C33.4051 31.5036 34.5822 31.413 35.6932 31.3275H35.6932L35.8773 31.3133C37.0422 31.2233 38.225 31.2233 39.4078 31.2233C39.6846 32.188 40.0569 33.1224 40.519 34.0126H40.286C37.4861 33.8658 34.6791 33.935 31.8897 34.2196C31.5563 34.8267 31.0337 35.3071 30.4021 35.5873C29.9408 38.5633 29.7369 41.5738 29.7928 44.5851C30.2475 44.7271 30.669 44.9599 31.0318 45.2696C31.3946 45.5794 31.6912 45.9596 31.9038 46.3875C32.1165 46.8154 32.2407 47.282 32.2691 47.7593C32.2974 48.2366 32.2294 48.7148 32.0689 49.165C35.0828 51.2644 38.3233 53.0151 41.7288 54.3838C42.1389 54.2056 42.5812 54.1137 43.0281 54.1138H43.3417C45.7701 51.5764 48.6287 46.6006 50.7882 41.9397C51.8246 42.1667 52.8818 42.2843 53.9425 42.2907C52.0069 47.5274 48.7452 53.6549 46.1644 56.1114C46.7861 56.2546 47.4926 56.4278 48.239 56.6108C49.9781 57.0373 51.9342 57.5169 53.5392 57.7939C57.9241 53.7853 60.5875 48.2237 60.9679 42.2816ZM21.8803 36.649C21.8635 36.7251 21.8426 36.8002 21.8176 36.8739C21.7623 36.9948 21.6994 37.112 21.6294 37.2249C23.0329 39.9906 24.8457 42.5267 27.0059 44.7471C26.8795 41.5616 27.2391 38.3755 28.0723 35.2993C27.9604 35.1968 27.8638 35.0786 27.7855 34.9484C25.7702 35.3359 23.7938 35.9051 21.8803 36.649ZM29.6584 30.5395C31.3593 25.8222 33.9722 21.4891 37.3468 17.7895C33.7924 17.909 30.3142 18.8564 27.1869 20.5569C24.0595 22.2574 21.3686 24.6645 19.3264 27.5882C19.4127 29.8339 19.7708 32.0607 20.3928 34.2196C20.5631 34.2118 20.7333 34.2363 20.8946 34.2916C21.1199 34.3707 21.3228 34.5034 21.486 34.6785C23.4478 33.8334 25.4772 33.1561 27.5526 32.654C27.5974 32.519 27.6422 32.384 27.696 32.258C27.8829 31.8481 28.1545 31.4829 28.4929 31.1866C28.8313 30.8903 29.2286 30.6697 29.6584 30.5395ZM18.7529 35.2903C18.2388 33.6361 17.8994 31.9321 17.7403 30.2065C16.3818 32.8239 15.5419 35.681 15.2672 38.6195C16.2288 37.7142 17.2865 36.9176 18.4214 36.2441C18.4388 36.0719 18.4779 35.9025 18.5379 35.7402C18.5912 35.5821 18.6634 35.431 18.7529 35.2903ZM19.5506 54.3497C22.0518 57.8017 25.4577 60.489 29.3895 62.1129H29.3985C29.8715 62.038 30.3306 61.8925 30.7606 61.681C29.2386 58.4472 28.2114 55.0012 27.7138 51.4594C26.9626 51.2479 26.3007 50.7961 25.8285 50.1725C25.3562 49.5489 25.0995 48.7877 25.0973 48.0043C25.1004 47.5451 25.1885 47.0905 25.3571 46.6636C23.1068 44.2122 21.2479 41.4258 19.8462 38.4036C19.7092 38.3971 19.5737 38.3729 19.4429 38.3316L19.2727 38.2416C17.6599 39.4079 16.2849 40.8741 15.2223 42.5606C15.551 46.8167 17.0494 50.8978 19.5506 54.3497ZM40.1068 57.1641C36.6791 55.876 33.4967 54.0074 30.6978 51.6394C31.3251 54.1948 33.431 59.1976 34.6407 60.8262C36.662 60.0118 38.5476 58.8921 40.2323 57.506C40.1826 57.3951 40.1407 57.2808 40.1068 57.1641ZM36.7913 63.8405H38.0727H38.0996C42.1732 63.8592 46.1773 62.781 49.695 60.7182C47.8478 60.2992 46.0467 59.6963 44.3185 58.9187C44.0182 59.0468 43.7015 59.1316 43.3776 59.1706C41.4006 61.0413 39.1376 62.5815 36.6748 63.7325L36.7913 63.8405Z" fill="white"/>
</svg>
